<svg width="28" height="28" viewBox="0 0 28 28" fill="none" xmlns="http://www.w3.org/2000/svg">
<rect width="28" height="28" rx="8" fill="#0659FD"/>
<path fill-rule="evenodd" clip-rule="evenodd" d="M15.9091 8.55566C14.5033 8.55566 13.3636 9.6953 13.3636 11.1011C13.3636 12.5069 14.5033 13.6466 15.9091 13.6466C17.3149 13.6466 18.4545 12.5069 18.4545 11.1011C18.4545 9.6953 17.3149 8.55566 15.9091 8.55566V8.55566ZM15.9091 9.76476C16.6473 9.76476 17.2455 10.3629 17.2455 11.1011C17.2455 11.8393 16.6473 12.4375 15.9091 12.4375C15.171 12.4375 14.5727 11.8392 14.5727 11.1011C14.5727 10.3631 15.171 9.76476 15.9091 9.76476V9.76476ZM8.90909 10.4648V12.3738H7V13.6466H8.90909V15.5557H10.1818V13.6466H12.0909V12.3738H10.1818V10.4648H8.90909V10.4648ZM15.9091 14.2829C14.21 14.2829 10.8182 15.1293 10.8182 16.8284V18.7375H21V16.8284C21 15.1293 17.6082 14.2829 15.9091 14.2829V14.2829ZM15.9091 15.492C17.7991 15.492 19.7909 16.4211 19.7909 16.8284V17.5284H12.0273V16.8284C12.0273 16.4211 14 15.492 15.9091 15.492Z" fill="white"/>
<mask id="mask0_2903_1493" style="mask-type:luminance" maskUnits="userSpaceOnUse" x="7" y="8" width="14" height="11">
<path fill-rule="evenodd" clip-rule="evenodd" d="M15.9091 8.55566C14.5033 8.55566 13.3636 9.6953 13.3636 11.1011C13.3636 12.5069 14.5033 13.6466 15.9091 13.6466C17.3149 13.6466 18.4545 12.5069 18.4545 11.1011C18.4545 9.6953 17.3149 8.55566 15.9091 8.55566V8.55566ZM15.9091 9.76476C16.6473 9.76476 17.2455 10.3629 17.2455 11.1011C17.2455 11.8393 16.6473 12.4375 15.9091 12.4375C15.171 12.4375 14.5727 11.8392 14.5727 11.1011C14.5727 10.3631 15.171 9.76476 15.9091 9.76476V9.76476ZM8.90909 10.4648V12.3738H7V13.6466H8.90909V15.5557H10.1818V13.6466H12.0909V12.3738H10.1818V10.4648H8.90909V10.4648ZM15.9091 14.2829C14.21 14.2829 10.8182 15.1293 10.8182 16.8284V18.7375H21V16.8284C21 15.1293 17.6082 14.2829 15.9091 14.2829V14.2829ZM15.9091 15.492C17.7991 15.492 19.7909 16.4211 19.7909 16.8284V17.5284H12.0273V16.8284C12.0273 16.4211 14 15.492 15.9091 15.492Z" fill="white"/>
</mask>
<g mask="url(#mask0_2903_1493)">
</g>
</svg>
