<svg width="113" height="41" viewBox="0 0 113 41" fill="none" xmlns="http://www.w3.org/2000/svg">
<path fill-rule="evenodd" clip-rule="evenodd" d="M51.8573 29.1047C53.3285 29.1047 54.5382 28.7538 55.4866 28.0518C56.4351 27.3498 56.9093 26.4388 56.9093 25.3186C56.9093 24.4673 56.6628 23.784 56.1699 23.2687C55.6771 22.7534 55.0834 22.395 54.3889 22.1933C53.6944 21.9917 52.9961 21.8237 52.2942 21.6893C51.5922 21.5548 50.9948 21.3681 50.5019 21.1292C50.009 20.8902 49.7626 20.5616 49.7626 20.1434C49.7626 19.7252 49.9269 19.3967 50.2555 19.1577C50.5841 18.9187 51.0471 18.7992 51.6445 18.7992C52.8393 18.7992 53.4816 19.322 53.5712 20.3675V20.3675H56.7972C56.7375 19.1278 56.2521 18.1458 55.341 17.4214C54.43 16.6971 53.2202 16.3349 51.7117 16.3349C50.2032 16.3349 48.9934 16.7008 48.0824 17.4326C47.1713 18.1645 46.7158 19.0681 46.7158 20.1434C46.7158 20.95 46.9622 21.6034 47.4551 22.1037C47.9479 22.6041 48.5416 22.9513 49.2361 23.1455C49.9306 23.3396 50.6289 23.5039 51.3308 23.6383C52.0328 23.7728 52.6302 23.9632 53.1231 24.2096C53.616 24.4561 53.8624 24.7921 53.8624 25.2178C53.8624 25.6434 53.6832 25.987 53.3247 26.2483C52.9663 26.5097 52.4958 26.6404 51.9133 26.6404C50.7035 26.6404 50.0389 26.1176 49.9194 25.0722V25.0722H46.6934C46.783 26.3715 47.2982 27.3685 48.2392 28.063C49.1801 28.7575 50.3862 29.1047 51.8573 29.1047ZM65.1086 29.1047C66.9308 29.1047 68.4579 28.5148 69.6901 27.3349C70.9223 26.155 71.5384 24.6092 71.5384 22.6974C71.5384 20.7857 70.926 19.2473 69.7013 18.0823C68.4766 16.9174 66.9569 16.3349 65.1422 16.3349C63.3276 16.3349 61.8079 16.9174 60.5832 18.0823C59.3585 19.2473 58.7461 20.7857 58.7461 22.6974C58.7461 24.6092 59.351 26.155 60.5608 27.3349C61.7706 28.5148 63.2865 29.1047 65.1086 29.1047ZM65.109 26.4388C64.2278 26.4388 63.4811 26.1176 62.8687 25.4754C62.2564 24.8332 61.9502 23.9147 61.9502 22.7198C61.9502 21.525 62.2564 20.6064 62.8687 19.9642C63.4811 19.322 64.2316 19.0009 65.1202 19.0009C66.0089 19.0009 66.7669 19.322 67.3942 19.9642C68.0215 20.6064 68.3351 21.5212 68.3351 22.7086C68.3351 23.896 68.0177 24.8145 67.383 25.4642C66.7482 26.1139 65.9902 26.4388 65.109 26.4388ZM79.2901 29.1047C80.7687 29.1047 82.0195 28.7239 83.0426 27.9622C84.0657 27.2005 84.7565 26.1699 85.1149 24.8705V24.8705H81.7096C81.2914 25.916 80.4849 26.4388 79.2901 26.4388C78.379 26.4388 77.6658 26.1064 77.1506 25.4418C76.6353 24.7772 76.3776 23.8698 76.3776 22.7198C76.3776 21.5698 76.6353 20.6624 77.1506 19.9978C77.6658 19.3332 78.379 19.0009 79.2901 19.0009C80.4998 19.0009 81.3064 19.5161 81.7096 20.5467V20.5467H85.1149C84.7714 19.2025 84.0918 18.1645 83.0762 17.4326C82.0606 16.7008 80.7986 16.3349 79.2901 16.3349C77.4829 16.3349 76.0117 16.9174 74.8766 18.0823C73.7415 19.2473 73.174 20.7931 73.174 22.7198C73.174 24.6465 73.7415 26.1923 74.8766 27.3573C76.0117 28.5223 77.4829 29.1047 79.2901 29.1047ZM89.0696 15.2819C89.5998 15.2819 90.0516 15.0952 90.425 14.7218C90.7984 14.3485 90.9851 13.8929 90.9851 13.3552C90.9851 12.8176 90.7984 12.362 90.425 11.9886C90.0516 11.6153 89.5998 11.4286 89.0696 11.4286C88.5394 11.4286 88.0876 11.6153 87.7142 11.9886C87.3408 12.362 87.1541 12.8176 87.1541 13.3552C87.1541 13.8929 87.3408 14.3485 87.7142 14.7218C88.0876 15.0952 88.5394 15.2819 89.0696 15.2819ZM90.6489 28.9255V16.5141H87.49V28.9255H90.6489ZM98.9829 29.1047C100.656 29.1047 101.963 28.3505 102.903 26.842V26.842V28.9255H106.04V16.5141H102.903V18.4408C102.007 17.0368 100.708 16.3349 99.0053 16.3349C97.3027 16.3349 95.8987 16.9286 94.7935 18.1159C93.6883 19.3033 93.1356 20.8305 93.1356 22.6974C93.1356 24.5643 93.6883 26.1027 94.7935 27.3125C95.9137 28.5073 97.3101 29.1047 98.9829 29.1047ZM99.621 26.3715C98.7473 26.3715 97.9819 26.043 97.3247 25.3858C96.6675 24.7286 96.339 23.8325 96.339 22.6974C96.339 21.5623 96.6638 20.6736 97.3135 20.0314C97.9632 19.3892 98.7286 19.0681 99.6098 19.0681C100.491 19.0681 101.26 19.3929 101.917 20.0426C102.575 20.6923 102.903 21.5847 102.903 22.7198C102.903 23.8549 102.575 24.751 101.917 25.4082C101.26 26.0504 100.495 26.3715 99.621 26.3715ZM112.559 28.9255V12.3471H109.4V28.9255H112.559Z" fill="#1E1F20"/>
<path opacity="0.4" fill-rule="evenodd" clip-rule="evenodd" d="M19.7528 36.1022L19.7453 23.8018L30.1811 30.0099L19.7528 36.1022ZM17.8857 37.1351H17.9817C17.9701 37.1401 17.955 37.1451 17.9327 37.1451C17.9161 37.1451 17.9007 37.1411 17.8857 37.1351V37.1351ZM3.77652 28.8689C3.73656 28.8453 3.71169 28.8016 3.71169 28.7547L3.72159 14.2695L16.033 21.5932L16.0416 36.0573L3.77652 28.8689ZM17.8902 3.90443C17.8977 3.90004 17.9204 3.88688 17.9551 3.88688C17.9784 3.88688 18.0002 3.89277 18.0202 3.90456L30.1821 11.0325L17.8882 18.3357L5.64992 11.0554L17.8902 3.90443ZM21.5556 20.5171L32.1752 14.2086L32.1665 26.8294L21.5556 20.5171ZM33.9695 8.90704L19.8782 0.648241C19.2836 0.299803 18.6194 0.125397 17.9553 0.125397C17.2929 0.125397 16.6307 0.298675 16.037 0.645608L1.93453 8.88435C0.745421 9.57897 0.0124315 10.8638 0.0114418 12.2546L0.000184109 28.752C-0.000805582 30.143 0.730452 31.4288 1.91845 32.1251L16.0097 40.3836C16.6045 40.7324 17.2686 40.9066 17.9326 40.9066C18.595 40.9066 19.2572 40.7333 19.8509 40.3865L33.9534 32.1476C35.1424 31.453 35.8755 30.1684 35.8765 28.7774L35.8879 12.28C35.8887 10.8891 35.1575 9.60329 33.9695 8.90704V8.90704Z" fill="#0659FD"/>
<path fill-rule="evenodd" clip-rule="evenodd" d="M17.9325 37.1452C17.916 37.1452 17.9006 37.1412 17.8855 37.1352H17.9815C17.97 37.1402 17.9547 37.1452 17.9325 37.1452M17.9552 3.88692C17.9783 3.88692 18.0002 3.89282 18.0201 3.9046L22.6199 6.60045L35.8861 14.3054L35.8876 12.28C35.8885 10.889 35.1572 9.60335 33.9692 8.90698L19.8781 0.648302C19.2833 0.299739 18.6191 0.125458 17.9552 0.125458C17.2928 0.125458 16.6306 0.298736 16.0368 0.645669L1.93429 8.88441C0.826331 9.53163 0.115115 10.6914 0.0223315 11.9719L22.5202 25.4528L29.183 29.4163L30.1808 30.0099L24.7016 33.2109V33.2219L21.1922 35.2721L19.7532 36.1321L19.712 36.1307C19.1545 36.4264 18.5438 36.576 17.9324 36.576C17.2683 36.576 16.6042 36.4015 16.0094 36.053L10.7222 32.9543V32.9384L0.00142427 26.6521L-6.02669e-05 28.7521C-0.000926246 30.143 0.730331 31.4288 1.91833 32.1251L16.0094 40.3837C16.6042 40.7324 17.2683 40.9067 17.9324 40.9067C18.5947 40.9067 19.2571 40.7333 19.8507 40.3866L33.9531 32.1477C35.0642 31.4987 35.7766 30.3346 35.8662 29.05L32.1243 26.8538L29.4081 25.202L15.0521 16.6486L5.64984 11.0553L17.8902 3.90448C17.8976 3.90009 17.9203 3.88692 17.9552 3.88692" fill="#0659FD"/>
</svg>
