<svg width="165" height="1024" viewBox="0 0 165 1024" fill="none" xmlns="http://www.w3.org/2000/svg">
<rect width="165" height="1024" fill="#0659FD"/>
<g clip-path="url(#clip0_2903_1487)">
<rect x="60" y="917" width="46" height="46" rx="11" stroke="white" stroke-opacity="0.2" stroke-width="2"/>
<path fill-rule="evenodd" clip-rule="evenodd" d="M85.08 943.59L87.67 941H78V939H87.67L85.08 936.41L86.5 935L91.5 940L86.5 945L85.08 943.59V943.59ZM90 931C91.1046 931 92 931.895 92 933V937.67L90 935.67V933H76V947H90V944.33L92 942.33V947C92 948.105 91.1046 949 90 949H76C74.89 949 74 948.1 74 947V933C74 931.89 74.89 931 76 931H90Z" fill="white"/>
<mask id="mask0_2903_1487" style="mask-type:luminance" maskUnits="userSpaceOnUse" x="74" y="931" width="18" height="18">
<path fill-rule="evenodd" clip-rule="evenodd" d="M85.08 943.59L87.67 941H78V939H87.67L85.08 936.41L86.5 935L91.5 940L86.5 945L85.08 943.59V943.59ZM90 931C91.1046 931 92 931.895 92 933V937.67L90 935.67V933H76V947H90V944.33L92 942.33V947C92 948.105 91.1046 949 90 949H76C74.89 949 74 948.1 74 947V933C74 931.89 74.89 931 76 931H90Z" fill="white"/>
</mask>
<g mask="url(#mask0_2903_1487)">
</g>
</g>
<g clip-path="url(#clip1_2903_1487)">
<rect x="59" y="194" width="48" height="48" rx="12" fill="white"/>
<path fill-rule="evenodd" clip-rule="evenodd" d="M79.4 226.4V219.2H81.8H84.2H86.6V226.4H90.2V216.692L83 209.492L75.8 216.692V226.4H79.4V226.4ZM83 206.108L94.892 218H92.6V228.8H84.2V221.6H81.8V228.8H73.4V218H71.108L83 206.108Z" fill="#0659FD"/>
<mask id="mask1_2903_1487" style="mask-type:luminance" maskUnits="userSpaceOnUse" x="71" y="206" width="24" height="23">
<path fill-rule="evenodd" clip-rule="evenodd" d="M79.4 226.4V219.2H81.8H84.2H86.6V226.4H90.2V216.692L83 209.492L75.8 216.692V226.4H79.4V226.4ZM83 206.108L94.892 218H92.6V228.8H84.2V221.6H81.8V228.8H73.4V218H71.108L83 206.108Z" fill="white"/>
</mask>
<g mask="url(#mask1_2903_1487)">
</g>
</g>
<g clip-path="url(#clip2_2903_1487)">
<rect x="59" y="282" width="48" height="48" rx="12" fill="white" fill-opacity="0.2"/>
<path fill-rule="evenodd" clip-rule="evenodd" d="M79.5333 304.8V307.2H77.1333V304.8H79.5333M84.3333 304.8V307.2H81.9333V304.8H84.3333M89.1333 304.8V307.2H86.7333V304.8H89.1333M91.5333 296.4C92.8588 296.4 93.9333 297.475 93.9333 298.8V315.6C93.9333 316.925 92.8588 318 91.5333 318H74.7333C73.4013 318 72.3333 316.92 72.3333 315.6V298.8C72.3333 297.475 73.4078 296.4 74.7333 296.4H75.9333V294H78.3333V296.4H87.9333V294H90.3333V296.4H91.5333M91.5333 315.6V302.4H74.7333V315.6H91.5333M79.5333 309.6V312H77.1333V309.6H79.5333M84.3333 309.6V312H81.9333V309.6H84.3333M89.1333 309.6V312H86.7333V309.6H89.1333Z" fill="white"/>
</g>
<g clip-path="url(#clip3_2903_1487)">
<rect x="59" y="370" width="48" height="48" rx="12" fill="white" fill-opacity="0.2"/>
<path fill-rule="evenodd" clip-rule="evenodd" d="M73.4 384.667H92.6C93.9255 384.667 95 385.741 95 387.067V401.467C95 402.792 93.9255 403.867 92.6 403.867H73.4C72.068 403.867 71 402.787 71 401.467V387.067C71 385.735 72.068 384.667 73.4 384.667V384.667ZM83 393.067L92.6 387.067H73.4L83 393.067V393.067ZM73.4 401.467H92.6V389.911L83 395.899L73.4 389.911V401.467Z" fill="white"/>
<mask id="mask2_2903_1487" style="mask-type:luminance" maskUnits="userSpaceOnUse" x="71" y="384" width="24" height="20">
<path fill-rule="evenodd" clip-rule="evenodd" d="M73.4 384.667H92.6C93.9255 384.667 95 385.741 95 387.067V401.467C95 402.792 93.9255 403.867 92.6 403.867H73.4C72.068 403.867 71 402.787 71 401.467V387.067C71 385.735 72.068 384.667 73.4 384.667V384.667ZM83 393.067L92.6 387.067H73.4L83 393.067V393.067ZM73.4 401.467H92.6V389.911L83 395.899L73.4 389.911V401.467Z" fill="white"/>
</mask>
<g mask="url(#mask2_2903_1487)">
</g>
</g>
<g clip-path="url(#clip4_2903_1487)">
<rect x="59" y="458" width="48" height="48" rx="12" fill="white" fill-opacity="0.2"/>
<path fill-rule="evenodd" clip-rule="evenodd" d="M83 471.333C85.9455 471.333 88.3333 473.721 88.3333 476.667C88.3333 479.612 85.9455 482 83 482C80.0545 482 77.6666 479.612 77.6666 476.667C77.6666 473.721 80.0545 471.333 83 471.333V471.333ZM83 474C81.5272 474 80.3333 475.194 80.3333 476.667C80.3333 478.139 81.5272 479.333 83 479.333C84.4727 479.333 85.6666 478.139 85.6666 476.667C85.6666 475.194 84.4727 474 83 474V474ZM83 483.333C86.56 483.333 93.6666 485.107 93.6666 488.667V492.667H72.3333V488.667C72.3333 485.107 79.44 483.333 83 483.333V483.333ZM83 485.867C79.04 485.867 74.8666 487.813 74.8666 488.667V490.133H91.1333V488.667C91.1333 487.813 86.96 485.867 83 485.867Z" fill="white"/>
<mask id="mask3_2903_1487" style="mask-type:luminance" maskUnits="userSpaceOnUse" x="72" y="471" width="22" height="22">
<path fill-rule="evenodd" clip-rule="evenodd" d="M83 471.333C85.9455 471.333 88.3333 473.721 88.3333 476.667C88.3333 479.612 85.9455 482 83 482C80.0545 482 77.6666 479.612 77.6666 476.667C77.6666 473.721 80.0545 471.333 83 471.333V471.333ZM83 474C81.5272 474 80.3333 475.194 80.3333 476.667C80.3333 478.139 81.5272 479.333 83 479.333C84.4727 479.333 85.6666 478.139 85.6666 476.667C85.6666 475.194 84.4727 474 83 474V474ZM83 483.333C86.56 483.333 93.6666 485.107 93.6666 488.667V492.667H72.3333V488.667C72.3333 485.107 79.44 483.333 83 483.333V483.333ZM83 485.867C79.04 485.867 74.8666 487.813 74.8666 488.667V490.133H91.1333V488.667C91.1333 487.813 86.96 485.867 83 485.867Z" fill="white"/>
</mask>
<g mask="url(#mask3_2903_1487)">
</g>
</g>
<g clip-path="url(#clip5_2903_1487)">
<rect x="59" y="546" width="48" height="48" rx="12" fill="white" fill-opacity="0.2"/>
<path fill-rule="evenodd" clip-rule="evenodd" d="M83 565.2C85.651 565.2 87.8 567.349 87.8 570C87.8 572.651 85.651 574.8 83 574.8C80.3491 574.8 78.2 572.651 78.2 570C78.2 567.349 80.3491 565.2 83 565.2V565.2ZM83 567.6C81.6745 567.6 80.6 568.675 80.6 570C80.6 571.325 81.6745 572.4 83 572.4C84.3255 572.4 85.4 571.325 85.4 570C85.4 568.675 84.3255 567.6 83 567.6V567.6ZM80.6 582C80.3 582 80.048 581.784 80 581.496L79.556 578.316C78.8 578.016 78.152 577.608 77.528 577.128L74.54 578.34C74.276 578.436 73.952 578.34 73.808 578.076L71.408 573.924C71.252 573.66 71.324 573.336 71.552 573.156L74.084 571.164L74 570L74.084 568.8L71.552 566.844C71.324 566.664 71.252 566.34 71.408 566.076L73.808 561.924C73.952 561.66 74.276 561.552 74.54 561.66L77.528 562.86C78.152 562.392 78.8 561.984 79.556 561.684L80 558.504C80.048 558.216 80.3 558 80.6 558H85.4C85.7 558 85.952 558.216 86 558.504L86.444 561.684C87.2 561.984 87.848 562.392 88.472 562.86L91.46 561.66C91.724 561.552 92.048 561.66 92.192 561.924L94.592 566.076C94.748 566.34 94.676 566.664 94.448 566.844L91.916 568.8L92 570L91.916 571.2L94.448 573.156C94.676 573.336 94.748 573.66 94.592 573.924L92.192 578.076C92.048 578.34 91.724 578.448 91.46 578.34L88.472 577.14C87.848 577.608 87.2 578.016 86.444 578.316L86 581.496C85.952 581.784 85.7 582 85.4 582H80.6V582ZM82.1 560.4L81.656 563.532C80.216 563.832 78.944 564.6 78.02 565.668L75.128 564.42L74.228 565.98L76.76 567.84C76.28 569.244 76.28 570.768 76.76 572.16L74.216 574.032L75.116 575.592L78.032 574.344C78.956 575.4 80.216 576.168 81.644 576.456L82.088 579.6H83.912L84.356 576.468C85.784 576.168 87.044 575.4 87.968 574.344L90.884 575.592L91.784 574.032L89.24 572.172C89.72 570.768 89.72 569.244 89.24 567.84L91.772 565.98L90.872 564.42L87.98 565.668C87.056 564.6 85.784 563.832 84.344 563.544L83.9 560.4H82.1Z" fill="white"/>
<mask id="mask4_2903_1487" style="mask-type:luminance" maskUnits="userSpaceOnUse" x="71" y="558" width="24" height="24">
<path fill-rule="evenodd" clip-rule="evenodd" d="M83 565.2C85.651 565.2 87.8 567.349 87.8 570C87.8 572.651 85.651 574.8 83 574.8C80.3491 574.8 78.2 572.651 78.2 570C78.2 567.349 80.3491 565.2 83 565.2V565.2ZM83 567.6C81.6745 567.6 80.6 568.675 80.6 570C80.6 571.325 81.6745 572.4 83 572.4C84.3255 572.4 85.4 571.325 85.4 570C85.4 568.675 84.3255 567.6 83 567.6V567.6ZM80.6 582C80.3 582 80.048 581.784 80 581.496L79.556 578.316C78.8 578.016 78.152 577.608 77.528 577.128L74.54 578.34C74.276 578.436 73.952 578.34 73.808 578.076L71.408 573.924C71.252 573.66 71.324 573.336 71.552 573.156L74.084 571.164L74 570L74.084 568.8L71.552 566.844C71.324 566.664 71.252 566.34 71.408 566.076L73.808 561.924C73.952 561.66 74.276 561.552 74.54 561.66L77.528 562.86C78.152 562.392 78.8 561.984 79.556 561.684L80 558.504C80.048 558.216 80.3 558 80.6 558H85.4C85.7 558 85.952 558.216 86 558.504L86.444 561.684C87.2 561.984 87.848 562.392 88.472 562.86L91.46 561.66C91.724 561.552 92.048 561.66 92.192 561.924L94.592 566.076C94.748 566.34 94.676 566.664 94.448 566.844L91.916 568.8L92 570L91.916 571.2L94.448 573.156C94.676 573.336 94.748 573.66 94.592 573.924L92.192 578.076C92.048 578.34 91.724 578.448 91.46 578.34L88.472 577.14C87.848 577.608 87.2 578.016 86.444 578.316L86 581.496C85.952 581.784 85.7 582 85.4 582H80.6V582ZM82.1 560.4L81.656 563.532C80.216 563.832 78.944 564.6 78.02 565.668L75.128 564.42L74.228 565.98L76.76 567.84C76.28 569.244 76.28 570.768 76.76 572.16L74.216 574.032L75.116 575.592L78.032 574.344C78.956 575.4 80.216 576.168 81.644 576.456L82.088 579.6H83.912L84.356 576.468C85.784 576.168 87.044 575.4 87.968 574.344L90.884 575.592L91.784 574.032L89.24 572.172C89.72 570.768 89.72 569.244 89.24 567.84L91.772 565.98L90.872 564.42L87.98 565.668C87.056 564.6 85.784 563.832 84.344 563.544L83.9 560.4H82.1Z" fill="white"/>
</mask>
<g mask="url(#mask4_2903_1487)">
</g>
</g>
<path opacity="0.4" fill-rule="evenodd" clip-rule="evenodd" d="M85.3369 89.5494L85.3268 73.3489L99.2412 81.5253L85.3369 89.5494ZM82.8473 90.9098H82.9753C82.9598 90.9164 82.9397 90.923 82.91 90.923C82.8879 90.923 82.8673 90.9177 82.8473 90.9098V90.9098ZM64.035 80.0226C63.9817 79.9915 63.9486 79.9339 63.9486 79.8721L63.9618 60.7941L80.3769 70.44L80.3885 89.4902L64.035 80.0226ZM82.8536 47.1425C82.8636 47.1368 82.8938 47.1194 82.9401 47.1194C82.9712 47.1194 83.0002 47.1272 83.0269 47.1427L99.2428 56.5308L82.8509 66.1495L66.5332 56.5608L82.8536 47.1425ZM87.7404 69.0226L101.9 60.7139L101.888 77.3365L87.7404 69.0226ZM104.292 53.7314L85.5041 42.8539C84.7112 42.395 83.8256 42.1653 82.9402 42.1653C82.0571 42.1653 81.1741 42.3935 80.3825 42.8504L61.5792 53.7015C59.9937 54.6163 59.0164 56.3085 59.0151 58.1404L59.0001 79.8687C58.9987 81.7007 59.9738 83.3942 61.5578 84.3112L80.346 95.1883C81.1391 95.6477 82.0246 95.8771 82.91 95.8771C83.7931 95.8771 84.6761 95.6489 85.4677 95.1921L104.271 84.3409C105.856 83.4261 106.834 81.7341 106.835 79.902L106.85 58.1737C106.851 56.3419 105.876 54.6484 104.292 53.7314V53.7314Z" fill="white"/>
<path fill-rule="evenodd" clip-rule="evenodd" d="M82.91 90.923C82.888 90.923 82.8674 90.9177 82.8473 90.9098H82.9753C82.9599 90.9164 82.9396 90.923 82.91 90.923M82.9403 47.1194C82.9711 47.1194 83.0003 47.1272 83.0269 47.1427L89.16 50.6933L106.848 60.8414L106.85 58.1737C106.851 56.3417 105.876 54.6484 104.292 53.7312L85.5042 42.8539C84.7112 42.3948 83.8256 42.1653 82.9403 42.1653C82.0572 42.1653 81.1742 42.3935 80.3824 42.8504L61.5791 53.7015C60.1019 54.5539 59.1536 56.0814 59.0299 57.768L89.027 75.5232L97.9107 80.7434L99.2412 81.5253L91.9356 85.7413V85.7557L87.2563 88.456L85.3376 89.5887L85.2827 89.5869C84.5395 89.9763 83.7251 90.1733 82.9099 90.1733C82.0245 90.1733 81.1391 89.9436 80.346 89.4845L73.2964 85.4033V85.3823L59.002 77.1028L59 79.8687C58.9988 81.7005 59.9739 83.394 61.5579 84.3112L80.346 95.1883C81.1391 95.6476 82.0245 95.8771 82.9099 95.8771C83.7931 95.8771 84.6762 95.6487 85.4676 95.1921L104.271 84.3409C105.752 83.4862 106.702 81.9529 106.822 80.261L101.832 77.3685L98.2109 75.193L79.0696 63.9274L66.5332 56.5607L82.8537 47.1425C82.8636 47.1368 82.8938 47.1194 82.9403 47.1194" fill="white"/>
<defs>
<clipPath id="clip0_2903_1487">
<rect width="48" height="48" fill="white" transform="translate(59 916)"/>
</clipPath>
<clipPath id="clip1_2903_1487">
<rect width="48" height="48" fill="white" transform="translate(59 194)"/>
</clipPath>
<clipPath id="clip2_2903_1487">
<rect width="48" height="48" fill="white" transform="translate(59 282)"/>
</clipPath>
<clipPath id="clip3_2903_1487">
<rect width="48" height="48" fill="white" transform="translate(59 370)"/>
</clipPath>
<clipPath id="clip4_2903_1487">
<rect width="48" height="48" fill="white" transform="translate(59 458)"/>
</clipPath>
<clipPath id="clip5_2903_1487">
<rect width="48" height="48" fill="white" transform="translate(59 546)"/>
</clipPath>
</defs>
</svg>
